PathFileType	4	(X/Y/Z)	C:\Users\°ÂÌØÂü\Desktop\20210112\bx_y_5_501-Unnamed.trc
DataRate	CameraRate	NumFrames	NumMarkers	Units	OrigDataRate	OrigDataStartFrame	OrigNumFrames
50.00	50.00	       4	0	mm	50.00	130	       519
Frame#	Time	
		

130	2.580	-868.61682	284.12875	726.59381	-835.62817	-76.81282	841.05011	-837.78894	280.26227	859.70642	-765.74872	-14.93274	795.25073	-728.74695	69.26912	220.98813	-773.48584	215.97821	808.32159	-860.04218	250.41768	617.67609	-353.12677	-26.23311	1143.88818	-767.65802	10.63578	523.42010	-842.89447	245.85735	560.24432	-863.81940	257.20660	480.70456	-778.84644	205.27603	532.72278	-393.37866	291.42615	1140.43433	-720.94922	158.48442	222.27950	-776.95435	227.03374	200.72090	-882.57751	296.05408	144.51141	-677.30603	176.87761	162.47879	-596.44415	224.84999	173.15250	-666.62134	301.14755	157.88811	-628.63251	308.76163	160.85677	-562.50671	260.50851	164.47234	-528.11951	303.96893	146.29918	-165.02713	145.38002	1333.79089				-623.83807	-81.12917	156.90483	-563.08264	-39.25039	162.68388	-517.97137	-72.88499	142.41002	-604.70850	18.60968	167.00308	-677.58130	51.63658	163.59401	-799.30298	176.33487	181.47546	-958.15326	86.96444	1082.05237	-797.48199	49.81195	172.96399	-773.73865	-10.78325	1000.01343	-852.25433	-45.17134	468.28696	-774.08307	-13.30237	200.50435	-876.08655	-78.91742	141.09328	-665.72211	-69.99243	159.49263	-828.05432	-33.63081	555.52118	-841.49176	-68.28339	687.82965	-804.94525	144.09201	563.58728										-828.58704	-37.23261	602.48431	
131	2.600	-869.87555	284.05270	726.08386	-836.58710	-76.56525	840.78156	-838.88824	280.35788	859.22504	-766.53259	-14.91395	795.27112	-728.78845	69.55390	221.33630	-774.49921	215.81534	807.99506	-861.10046	250.16231	617.13342				-768.04590	10.60262	523.79742	-843.64832	245.28606	559.61957	-864.62848	257.19543	480.57904	-779.55450	205.22142	532.86481	-394.35599	291.49551	1140.96143	-720.94574	158.40163	222.23724	-776.91272	227.12608	200.84563	-882.73468	296.06268	144.51059	-677.30603	176.87761	162.47879	-596.46014	224.58820	173.04533	-666.47357	301.32700	157.83263	-628.45300	308.66299	160.69322	-562.45325	260.52130	164.37064	-528.08075	304.04053	146.20436	-166.52820	145.39722	1333.81409				-623.77277	-81.16688	156.95912	-563.10620	-39.25000	162.67406	-517.88416	-72.70754	142.25522	-604.55017	18.41949	167.10001	-677.54535	51.73717	163.41594	-799.49341	176.29961	181.54202	-959.35144	86.37566	1082.19116	-797.71405	49.76550	173.14697	-774.17834	-11.06987	999.85919	-852.52380	-45.26548	468.05463	-773.94806	-13.53328	200.63977	-875.64880	-79.04969	141.18465	-665.90039	-70.06491	159.43198	-828.52985	-33.81149	555.36945	-841.99646	-68.45532	687.76508	-805.72113	143.92538	563.10864										-829.22345	-37.54250	602.48480	
132	2.620	-870.44263	283.89240	725.62067	-837.34845	-76.62740	840.82507	-840.06293	280.47314	859.32483	-767.58740	-14.96293	795.20972	-728.74127	69.39688	221.53961	-775.77289	215.90121	807.93250	-861.52686	250.08147	616.92218	-356.19614	-26.01543	1143.00464	-768.58923	10.66786	523.40509	-844.57184	245.33490	559.74371	-865.39807	257.06918	480.53745	-780.06897	205.45930	532.98047	-394.96515	291.45096	1141.24658	-721.04895	158.32910	222.34605	-776.91272	227.12608	200.84563	-882.65179	296.02704	144.46056	-677.30603	176.87761	162.47879	-596.41272	224.63187	173.03506	-666.67816	301.33862	157.68100	-628.63251	308.76163	160.85677	-562.40747	260.49768	164.32806	-528.07745	304.01819	146.02515	-167.95256	145.32646	1334.04980				-623.77277	-81.16688	156.95912	-563.09363	-39.33872	162.77583	-517.77277	-72.99162	142.49489	-604.78796	18.55917	167.03943	-677.58130	51.63658	163.59401	-799.70172	176.44293	181.52707	-960.41748	86.73800	1081.66357	-797.63281	49.59810	173.07529	-775.84198	-10.38795	999.39423	-852.70795	-45.37943	467.79001	-774.06244	-13.67329	200.46352	-875.94904	-79.04231	141.03226	-665.79053	-69.98895	159.42656	-829.32031	-33.79247	555.22241				-805.85651	143.66357	563.03375										-829.85077	-37.81550	602.43420	
133	2.640	-872.33777	284.05042	726.13959	-838.50415	-76.94743	841.14124	-840.99298	280.43146	859.13916	-768.25305	-15.08188	795.23547	-729.03705	69.65301	221.70537	-776.72711	215.83424	808.06451	-862.28967	250.06644	616.95221	-357.45493	-25.27772	1142.76550	-768.84155	10.34857	523.80469	-845.07532	245.92506	559.72211	-865.61761	257.10214	480.38779	-780.61725	204.98302	532.65521	-396.86093	291.40186	1141.39282	-721.00537	158.36444	222.31319	-776.91272	227.12608	200.84563	-882.60010	295.98544	144.47417	-677.30603	176.87761	162.47879	-596.51373	224.46309	173.12852	-666.66473	301.22705	157.78029	-628.63251	308.76163	160.85677	-562.47693	260.74286	164.27063	-528.09808	303.92371	146.26306	-169.46664	145.46217	1334.35193	-844.31976	-69.31934	688.37366	-623.76508	-81.10412	157.00194	-563.17804	-39.16231	162.60796	-517.91742	-72.66304	142.34189	-604.76691	18.49587	166.99648	-677.27594	51.73880	163.52716	-799.59857	176.20041	181.55577	-961.42444	86.44397	1081.36218	-797.58704	49.50713	172.98448	-776.41278	-10.64742	999.47058	-853.03583	-45.24029	467.56616	-773.94263	-13.62876	200.42805	-875.99457	-78.94872	141.12155	-665.65564	-70.04214	159.51608	-829.82214	-34.23497	555.42157				-806.45239	143.70905	562.77625										-830.40454	-37.76969	602.18970	
